<svg xmlns="http://www.w3.org/2000/svg" width="48" height="48" viewBox="0 0 48 48">
  <g id="Сгруппировать_87" data-name="Сгруппировать 87" transform="translate(-296 -2534.663)">
    <path id="Контур_41" data-name="Контур 41" d="M333,2580.663h-2.29c-2.578-1.643-2.873-4.642-2.65-6.9a1,1,0,0,0-.995-1.1H326v2h0a9.225,9.225,0,0,0,1.758,6H312.239a9.225,9.225,0,0,0,1.758-6h0v-2h-1.065a1,1,0,0,0-1,1.1c.224,2.259-.071,5.258-2.649,6.9H307a1,1,0,0,0,0,2h26a1,1,0,0,0,0-2Z" fill="#d3820f"/>
    <path id="Контур_42" data-name="Контур 42" d="M341.208,2534.663H298.792a2.8,2.8,0,0,0-2.792,2.792v34.416a2.8,2.8,0,0,0,2.792,2.792h42.416a2.8,2.8,0,0,0,2.792-2.792v-34.416A2.8,2.8,0,0,0,341.208,2534.663Zm-42.416,2h42.416a.794.794,0,0,1,.792.792v3.208H298v-3.208A.793.793,0,0,1,298.792,2536.663Zm42.416,36H298.792a.793.793,0,0,1-.792-.792v-29.208h44v29.208A.793.793,0,0,1,341.208,2572.663Z" fill="#d3820f"/>
    <g id="Сгруппировать_78" data-name="Сгруппировать 78">
      <circle id="Эллипс_14" data-name="Эллипс 14" cx="1" cy="1" r="1" transform="translate(301 2537.663)" fill="#d3820f"/>
    </g>
    <g id="Сгруппировать_79" data-name="Сгруппировать 79">
      <circle id="Эллипс_15" data-name="Эллипс 15" cx="1" cy="1" r="1" transform="translate(305 2537.663)" fill="#d3820f"/>
    </g>
    <g id="Сгруппировать_80" data-name="Сгруппировать 80">
      <circle id="Эллипс_16" data-name="Эллипс 16" cx="1" cy="1" r="1" transform="translate(309 2537.663)" fill="#d3820f"/>
    </g>
    <g id="Сгруппировать_81" data-name="Сгруппировать 81">
      <path id="Контур_43" data-name="Контур 43" d="M309,2564.663h-7a1,1,0,0,1-1-1v-16a1,1,0,0,1,1-1h16a1,1,0,0,1,1,1v7a1,1,0,0,1-2,0v-6H303v14h6a1,1,0,0,1,0,2Z" fill="#d3820f"/>
    </g>
    <g id="Сгруппировать_82" data-name="Сгруппировать 82">
      <path id="Контур_44" data-name="Контур 44" d="M320.333,2569.663h0a1,1,0,0,1-.707-.293l-3.959-3.96-1.96,1.96a1,1,0,0,1-1.688-.511l-2-10a1,1,0,0,1,1.177-1.176l10,2a1,1,0,0,1,.511,1.687l-1.96,1.96,3.96,3.959a1,1,0,0,1,0,1.414l-2.667,2.667A1,1,0,0,1,320.333,2569.663ZM315.667,2563h0a1,1,0,0,1,.707.293l3.959,3.96,1.253-1.253-3.96-3.959a1,1,0,0,1,0-1.414l1.346-1.346-6.7-1.339,1.34,6.7,1.346-1.346A1,1,0,0,1,315.667,2563Z" fill="#d3820f"/>
    </g>
    <g id="Сгруппировать_83" data-name="Сгруппировать 83">
      <path id="Контур_45" data-name="Контур 45" d="M338,2548.663H324a1,1,0,0,1,0-2h14a1,1,0,0,1,0,2Z" fill="#d3820f"/>
    </g>
    <g id="Сгруппировать_84" data-name="Сгруппировать 84">
      <path id="Контур_46" data-name="Контур 46" d="M338,2553.663H324a1,1,0,0,1,0-2h14a1,1,0,0,1,0,2Z" fill="#d3820f"/>
    </g>
    <g id="Сгруппировать_85" data-name="Сгруппировать 85">
      <path id="Контур_47" data-name="Контур 47" d="M338,2558.663H324a1,1,0,0,1,0-2h14a1,1,0,0,1,0,2Z" fill="#d3820f"/>
    </g>
    <g id="Сгруппировать_86" data-name="Сгруппировать 86">
      <path id="Контур_48" data-name="Контур 48" d="M338,2563.663h-8a1,1,0,0,1,0-2h8a1,1,0,0,1,0,2Z" fill="#d3820f"/>
    </g>
  </g>
</svg>
