<svg xmlns="http://www.w3.org/2000/svg" width="48" height="45" viewBox="0 0 48 45">
  <path id="Контур_62" data-name="Контур 62" d="M1140.325,2564.671a4.5,4.5,0,0,0-2.825-8h-4.944a.983.983,0,0,0-.556-.19c-2.514,0-3.006-.566-3.054-.63l-.009-.115c2.552-6.815,2.9-11.757,1.035-14.69a4.988,4.988,0,0,0-3.648-2.375,3.9,3.9,0,0,0-3.157,1.248,3.676,3.676,0,0,0-.735,2.8c.864,8.715-5.866,10.917-6.121,11a7.325,7.325,0,0,0-5.18,5.954H1110a1,1,0,0,0,0,2h2a1,1,0,0,0,1-.944c.011-.168.283-4.112,3.866-5.088.086-.026,8.588-2.733,7.546-13.2a1.788,1.788,0,0,1,.293-1.242,1.962,1.962,0,0,1,1.528-.534,3.033,3.033,0,0,1,2.084,1.5c1.012,1.643,1.617,5.208-1.221,12.792a2.083,2.083,0,0,0,.156,1.952c.618.97,1.992,1.477,4.172,1.553a.979.979,0,0,0,.578.2h5.5a2.5,2.5,0,0,1,0,5,.638.638,0,0,1-.5,0h-1a1,1,0,0,0,0,2h1a.652.652,0,0,1,.5,0,2.5,2.5,0,0,1,0,5H1135a1,1,0,0,0,0,2h1a2,2,0,0,1,0,4h-1.5a.638.638,0,0,1-.5,0h-1a1,1,0,0,0,0,2h1a.652.652,0,0,1,.5,0,1.5,1.5,0,0,1,0,3h-20.8c-.531,0-1.008-.494-1.676-1.249a3.916,3.916,0,0,0-2.811-1.751H1108v-23a1,1,0,0,0-1-1h-12a1,1,0,0,0-1,1v27a1,1,0,0,0,1,1h12a1,1,0,0,0,1-1v-2h1.215c.361,0,.846.547,1.313,1.077a4.369,4.369,0,0,0,3.174,1.923h20.8a3.5,3.5,0,0,0,3.005-5.294,4,4,0,0,0,1.731-6.054,4.5,4.5,0,0,0,1.089-7.652Zm-34.325,17h-2v-4a1,1,0,0,0-2,0v4h-2v-4a1,1,0,0,0-2,0v4h-2v-25h10Z" transform="translate(-1094 -2538.671)" fill="#d3820f"/>
</svg>
