<svg xmlns="http://www.w3.org/2000/svg" width="48" height="48" viewBox="0 0 48 48">
  <g id="Сгруппировать_77" data-name="Сгруппировать 77" transform="translate(-562 -2537.579)">
    <path id="Контур_38" data-name="Контур 38" d="M571,2579.579h-3v-3a1,1,0,0,0-2,0v4a1,1,0,0,0,1,1h4a1,1,0,0,0,0-2Z" fill="#d3820f"/>
    <path id="Контур_39" data-name="Контур 39" d="M597,2564.579a4,4,0,1,0,4,4A4,4,0,0,0,597,2564.579Zm0,6a2,2,0,1,1,2-2A2,2,0,0,1,597,2570.579Z" fill="#d3820f"/>
    <path id="Контур_40" data-name="Контур 40" d="M607.293,2561.579H606V2553.8a2.221,2.221,0,0,0-2.219-2.219h-2.453l-18.735-13.805a1,1,0,0,0-1.52.428l-2.25,5.531-6.391-3.056a1.006,1.006,0,0,0-.81-.024.993.993,0,0,0-.561.584l-3.761,10.342h-3.081A2.221,2.221,0,0,0,562,2553.8v29.562a2.221,2.221,0,0,0,2.219,2.219h39.562A2.221,2.221,0,0,0,606,2583.36v-7.781h1.293a2.72,2.72,0,0,0,2.707-2.725V2564.3A2.72,2.72,0,0,0,607.293,2561.579ZM604,2553.8v7.781h-3V2553.8c0-.075-.015-.146-.022-.219h2.8A.219.219,0,0,1,604,2553.8Zm-23.369-9.2,1.81-4.451,15.516,11.433h-2.729l-6.952-3.325Zm-8.067-1.64,6.354,3.039h0l11.673,5.583H587.22l-12.8-5.908a1,1,0,0,0-1.367.591l-1.772,5.317h-1.852Zm9.883,8.622h-9.059l1.208-3.624Zm9.553,32H564.219a.219.219,0,0,1-.219-.219V2553.8a.219.219,0,0,1,.219-.219h34.562a.219.219,0,0,1,.219.219v7.781h-3.062a7,7,0,0,0,0,14H599v7.781a.219.219,0,0,1-.219.219Zm12-.219a.219.219,0,0,1-.219.219h-2.8c.007-.073.022-.144.022-.219v-7.781h3Zm4-10.506a.717.717,0,0,1-.707.725H595.938a5,5,0,0,1,0-10h11.355a.716.716,0,0,1,.707.724Z" fill="#d3820f"/>
  </g>
</svg>
