<svg xmlns="http://www.w3.org/2000/svg" width="48" height="48" viewBox="0 0 48 48">
  <g id="Сгруппировать_91" data-name="Сгруппировать 91" transform="translate(-1360 -2535.781)">
    <g id="Сгруппировать_89" data-name="Сгруппировать 89">
      <path id="Контур_57" data-name="Контур 57" d="M1407,2550.781h-46a1,1,0,0,1,0-2h46a1,1,0,0,1,0,2Z" fill="#d3820f"/>
    </g>
    <g id="Сгруппировать_90" data-name="Сгруппировать 90">
      <path id="Контур_58" data-name="Контур 58" d="M1408,2551.386v-1.6c0-.026-.013-.048-.015-.073a.88.88,0,0,0-.039-.193.942.942,0,0,0-.069-.19c-.012-.022-.012-.047-.025-.068l-8-13c-.021-.034-.053-.052-.076-.082a1.044,1.044,0,0,0-.139-.149.965.965,0,0,0-.158-.106.85.85,0,0,0-.168-.076.943.943,0,0,0-.2-.042c-.037,0-.069-.021-.107-.021h-30c-.038,0-.07.018-.107.021a.973.973,0,0,0-.206.042.942.942,0,0,0-.164.075.861.861,0,0,0-.162.109.9.9,0,0,0-.136.146.861.861,0,0,0-.077.083l-8,13c-.013.021-.013.046-.025.068a1.31,1.31,0,0,0-.108.383c0,.025-.015.047-.015.073v1.6a5.387,5.387,0,0,0,4,5.189v25.206h-3a1,1,0,0,0,0,2h46a1,1,0,0,0,0-2h-3v-25.206A5.387,5.387,0,0,0,1408,2551.386Zm-5.394,3.4h-.211a3.4,3.4,0,0,1-3.4-3.4v-1.6a.918.918,0,0,0-.035-.173.978.978,0,0,0-.031-.186l-4.478-11.641h3.985l7.559,12.283v1.322A3.4,3.4,0,0,1,1402.606,2554.781ZM1371,2549.968l4.687-12.187h4.148l-1.823,11.848c0,.026.005.05,0,.076s-.015.049-.015.076v1.6a3.4,3.4,0,0,1-3.394,3.4h-.211a3.4,3.4,0,0,1-3.4-3.4Zm9-.111,1.858-12.076h4.284l1.858,12.076v1.041a3.887,3.887,0,0,1-3.883,3.883h-.234A3.887,3.887,0,0,1,1380,2550.9Zm10,1.041v-1.117c0-.027-.013-.049-.015-.076s.007-.05,0-.076l-1.822-11.848h4.147l4.687,12.187v1.418a3.4,3.4,0,0,1-3.394,3.4h-.211a3.4,3.4,0,0,1-3.4-3.4Zm-28,.488v-1.322l7.559-12.283h3.985l-4.478,11.641a.975.975,0,0,0-.031.187.908.908,0,0,0-.035.172v1.6a3.4,3.4,0,0,1-3.394,3.4h-.211A3.4,3.4,0,0,1,1362,2551.386Zm9,30.4v-11h6v11Zm8,0v-12a1,1,0,0,0-1-1h-8a1,1,0,0,0-1,1v12h-3v-25.04a5.015,5.015,0,0,1,8.4.04h.211a5.386,5.386,0,0,0,4.509-2.45,5.874,5.874,0,0,0,4.768,2.45h.234a5.873,5.873,0,0,0,4.768-2.45,5.387,5.387,0,0,0,4.51,2.45h.211a5.015,5.015,0,0,1,8.394-.04v25.04Z" fill="#d3820f"/>
      <path id="Контур_59" data-name="Контур 59" d="M1399,2558.781h-16a1,1,0,0,0-1,1v19a1,1,0,0,0,1,1h16a1,1,0,0,0,1-1v-19A1,1,0,0,0,1399,2558.781Zm-1,19h-14v-17h14Z" fill="#d3820f"/>
      <path id="Контур_60" data-name="Контур 60" d="M1378,2558.781h-8a1,1,0,0,0-1,1v6a1,1,0,0,0,1,1h8a1,1,0,0,0,1-1v-6A1,1,0,0,0,1378,2558.781Zm-1,6h-6v-4h6Z" fill="#d3820f"/>
      <path id="Контур_61" data-name="Контур 61" d="M1392,2575.781h3a1,1,0,0,0,1-1v-3a1,1,0,0,0-2,0v2h-2a1,1,0,0,0,0,2Z" fill="#d3820f"/>
    </g>
  </g>
</svg>
