<svg xmlns="http://www.w3.org/2000/svg" width="17.233" height="15.821" viewBox="0 0 17.233 15.821">
  <g id="Сгруппировать_120" data-name="Сгруппировать 120" transform="translate(-1020.198 -2023.389)">
    <path id="Контур_133" data-name="Контур 133" d="M1035.532,2024.851a.294.294,0,0,0-.379.049.22.22,0,0,0-.027.318C1035.14,2024.989,1035.327,2024.94,1035.532,2024.851Z" fill="none"/>
    <path id="Контур_134" data-name="Контур 134" d="M1035.373,2025.542a.434.434,0,0,0-.1.044.311.311,0,0,0,.465-.222.347.347,0,0,0-.035-.111c-.032.027-.086.049-.093.081A.225.225,0,0,1,1035.373,2025.542Z" fill="none"/>
    <path id="Контур_135" data-name="Контур 135" d="M1023.122,2024.951a.1.1,0,0,0,.059-.075c0-.024-.047-.071-.063-.067a.659.659,0,0,0-.277.1.239.239,0,0,0-.013.332C1022.907,2025.037,1022.907,2025.038,1023.122,2024.951Z" fill="none"/>
    <path id="Контур_136" data-name="Контур 136" d="M1031.651,2024.587a3.5,3.5,0,0,0-1.641.663c-.374.288-.706.632-1.052.956-.094.089-.155.126-.261.006-.169-.192-.358-.366-.541-.545a3.9,3.9,0,0,0-1.881-1.032,3.975,3.975,0,0,0-1.564-.052,3.742,3.742,0,0,0-1.416.511,3.914,3.914,0,0,0-1.942,3.357,3.78,3.78,0,0,0,1.121,2.865c2.059,2.083,4.138,4.146,6.206,6.22.1.1.162.121.276.007q3.073-3.082,6.155-6.159a3.864,3.864,0,0,0,1.176-2.9,3.784,3.784,0,0,0-1.08-2.7A3.9,3.9,0,0,0,1031.651,2024.587Z" fill="none"/>
    <path id="Контур_137" data-name="Контур 137" d="M1036.947,2026.478a5.06,5.06,0,0,0-4.255-3.013,5.035,5.035,0,0,0-2.233.324,4.723,4.723,0,0,0-1.51.911c-.076.07-.142.1-.242.009a5.091,5.091,0,0,0-6.441-.226,5.092,5.092,0,0,0-1.992,3.626,4.705,4.705,0,0,0,.165,1.744,5.039,5.039,0,0,0,1.314,2.282q1.891,1.9,3.787,3.79,1.564,1.566,3.124,3.137c.114.114.186.134.3.006.222-.242.46-.47.692-.7,2.046-2.046,4.086-4.1,6.141-6.134a5.028,5.028,0,0,0,1.577-3.423A5.449,5.449,0,0,0,1036.947,2026.478Zm-1.248-1.225a.347.347,0,0,1,.035.111.311.311,0,0,1-.465.222.434.434,0,0,1,.1-.044.225.225,0,0,0,.233-.208C1035.613,2025.3,1035.667,2025.28,1035.7,2025.253Zm-.546-.353a.294.294,0,0,1,.379-.049c-.2.089-.392.138-.406.367A.22.22,0,0,1,1035.153,2024.9Zm-12.312.013a.659.659,0,0,1,.277-.1c.016,0,.063.043.063.067a.1.1,0,0,1-.059.075c-.215.087-.215.086-.294.294A.239.239,0,0,1,1022.841,2024.913Zm12.27,6.471q-3.073,3.082-6.155,6.159c-.114.114-.173.1-.276-.007-2.068-2.074-4.147-4.137-6.206-6.22a3.78,3.78,0,0,1-1.121-2.865,3.914,3.914,0,0,1,1.942-3.357,3.742,3.742,0,0,1,1.416-.511,3.975,3.975,0,0,1,1.564.052,3.9,3.9,0,0,1,1.881,1.032c.183.179.372.353.541.545.106.12.167.083.261-.006.346-.324.678-.668,1.052-.956a3.5,3.5,0,0,1,1.641-.663,3.9,3.9,0,0,1,3.556,1.2,3.784,3.784,0,0,1,1.08,2.7A3.864,3.864,0,0,1,1035.111,2031.384Z" fill="#ffb400" stroke="#ffb400" stroke-linecap="round" stroke-linejoin="round" stroke-width="0.108"/>
  </g>
</svg>
