<svg xmlns="http://www.w3.org/2000/svg" width="206.531" height="56.295" viewBox="0 0 206.531 56.295">
  <g id="Сгруппировать_19" data-name="Сгруппировать 19" transform="translate(-296 -90.226)">
    <rect id="Прямоугольник_16" data-name="Прямоугольник 16" width="53.803" height="53.803" transform="translate(297 91.261)" fill="none" stroke="#1a1818" stroke-miterlimit="10" stroke-width="2"/>
    <g id="Сгруппировать_16" data-name="Сгруппировать 16">
      <path id="Контур_11" data-name="Контур 11" d="M363.322,91.38a.642.642,0,0,1,.613-.612h.85a1,1,0,0,1,.918.51l9.555,16.661,9.554-16.661a1,1,0,0,1,.918-.51h.817a.572.572,0,0,1,.442.187.613.613,0,0,1,.17.425v21.728a.583.583,0,0,1-.612.612h-.817a.583.583,0,0,1-.611-.612V94.678l-9.012,15.642a.613.613,0,0,1-.611.374h-.511a.656.656,0,0,1-.611-.374L365.4,94.712v18.4a.582.582,0,0,1-.611.612h-.85a.608.608,0,0,1-.425-.17.568.568,0,0,1-.188-.442Z" fill="#1a1818"/>
      <path id="Контур_12" data-name="Контур 12" d="M391.954,113.176l9.759-21.932a.786.786,0,0,1,.748-.476h.544a.687.687,0,0,1,.714.476l9.793,21.932a.4.4,0,0,1,0,.391.417.417,0,0,1-.374.153h-.918a.853.853,0,0,1-.85-.544l-2.278-5.134H396.374l-2.278,5.134a.854.854,0,0,1-.85.544h-.952Q391.715,113.72,391.954,113.176Zm10.779-19.382-5.508,12.344h11.016Z" fill="#1a1818"/>
      <path id="Контур_13" data-name="Контур 13" d="M418.918,113.72a.61.61,0,0,1-.425-.17.567.567,0,0,1-.187-.442V91.38a.641.641,0,0,1,.612-.612h9.317a7.051,7.051,0,0,1,5.1,1.972,6.937,6.937,0,0,1,0,9.827,7.047,7.047,0,0,1-5.1,1.972H420.38v8.569a.583.583,0,0,1-.611.612Zm9.317-21.048H420.38V102.6h7.855a4.932,4.932,0,0,0,3.587-1.411,5.068,5.068,0,0,0,0-7.09A4.9,4.9,0,0,0,428.235,92.672Z" fill="#1a1818"/>
      <path id="Контур_14" data-name="Контур 14" d="M441.428,113.72a.61.61,0,0,1-.425-.17.568.568,0,0,1-.188-.442V91.38a.642.642,0,0,1,.613-.612h.85a.573.573,0,0,1,.442.187.618.618,0,0,1,.17.425v21.728a.583.583,0,0,1-.612.612Zm13.466-.442-10.78-11.255L454.247,91.21a1.366,1.366,0,0,1,.986-.442H456.7q.577,0,.2.442l-10.167,10.813,10.813,11.255c.113.114.153.216.119.306s-.142.136-.322.136h-1.463A1.36,1.36,0,0,1,454.894,113.278Z" fill="#1a1818"/>
      <path id="Контур_15" data-name="Контур 15" d="M462.476,91.38a.641.641,0,0,1,.612-.612h15.063a.541.541,0,0,1,.613.612v.714c0,.386-.2.578-.613.578h-13.6v8.467h12a.541.541,0,0,1,.611.612v.714c0,.386-.2.578-.611.578h-12v8.773h13.771a.542.542,0,0,1,.613.612v.68a.542.542,0,0,1-.613.612H463.088a.61.61,0,0,1-.425-.17.567.567,0,0,1-.187-.442Z" fill="#1a1818"/>
      <path id="Контур_16" data-name="Контур 16" d="M482.062,91.38a.641.641,0,0,1,.612-.612H501.92a.54.54,0,0,1,.611.612v.714c0,.386-.2.578-.611.578h-8.6v20.436a.583.583,0,0,1-.611.612h-.816a.583.583,0,0,1-.613-.612V92.672h-8.6c-.408,0-.612-.192-.612-.578Z" fill="#1a1818"/>
    </g>
    <g id="Сгруппировать_18" data-name="Сгруппировать 18">
      <g id="Сгруппировать_17" data-name="Сгруппировать 17">
        <path id="Контур_17" data-name="Контур 17" d="M383.895,141.353a11.049,11.049,0,0,1-4.149,3.791,11.956,11.956,0,0,1-5.713,1.377,11.342,11.342,0,0,1-8.382-3.367,11.757,11.757,0,0,1,8.382-20.163,12.073,12.073,0,0,1,5.713,1.36,10.917,10.917,0,0,1,4.149,3.774q.306.51-.272.748l-.851.306a.533.533,0,0,1-.238.068.8.8,0,0,1-.645-.34A9.166,9.166,0,0,0,378.522,126a9.765,9.765,0,0,0-4.489-1.037,9.323,9.323,0,0,0-6.886,2.788,9.49,9.49,0,0,0-2.77,6.971,9.586,9.586,0,0,0,2.77,7.021,9.289,9.289,0,0,0,6.886,2.806,9.64,9.64,0,0,0,4.489-1.054,9.317,9.317,0,0,0,3.367-2.925.806.806,0,0,1,.645-.34.547.547,0,0,1,.238.068l.851.306Q384.2,140.842,383.895,141.353Z" fill="#1a1818"/>
        <path id="Контур_18" data-name="Контур 18" d="M390.457,146.215a.61.61,0,0,1-.425-.17.567.567,0,0,1-.187-.442V123.875a.641.641,0,0,1,.612-.612H400.59a6.241,6.241,0,0,1,4.455,1.666,5.469,5.469,0,0,1,1.767,4.148,5.588,5.588,0,0,1-.764,2.873,5.78,5.78,0,0,1-2.092,2.092A6.347,6.347,0,0,1,406.9,136.3a6.274,6.274,0,0,1-.833,8.093,6.784,6.784,0,0,1-4.828,1.819Zm10.133-21.048h-8.671v8.093h8.671a4.018,4.018,0,0,0,2.941-1.156,4.127,4.127,0,0,0,0-5.764A3.989,3.989,0,0,0,400.59,125.167Zm.646,10h-9.317v9.147h9.317a4.565,4.565,0,0,0,3.316-1.31,4.356,4.356,0,0,0,1.343-3.247,4.423,4.423,0,0,0-1.327-3.281A4.551,4.551,0,0,0,401.236,135.164Z" fill="#1a1818"/>
        <path id="Контур_19" data-name="Контур 19" d="M413.545,123.875a.64.64,0,0,1,.612-.612h15.064a.541.541,0,0,1,.612.612v.714c0,.386-.2.578-.612.578h-13.6v8.467h12a.54.54,0,0,1,.611.612v.713c0,.386-.611.579-.611.579h-12v8.773h13.772a.541.541,0,0,1,.612.612v.68a.541.541,0,0,1-.612.612H414.157a.61.61,0,0,1-.425-.17.567.567,0,0,1-.187-.442Z" fill="#1a1818"/>
        <path id="Контур_20" data-name="Контур 20" d="M433.131,123.875a.64.64,0,0,1,.612-.612h19.246a.541.541,0,0,1,.612.612v.714c0,.386-.2.578-.612.578h-8.6V145.6a.583.583,0,0,1-.612.612h-.816a.583.583,0,0,1-.612-.612V125.167h-8.6c-.408,0-.612-.192-.612-.578Z" fill="#1a1818"/>
        <path id="Контур_21" data-name="Контур 21" d="M453.058,145.671l9.758-21.932a.786.786,0,0,1,.748-.476h.544a.684.684,0,0,1,.714.476l9.793,21.932a.391.391,0,0,1,0,.391.415.415,0,0,1-.374.153h-.918a.852.852,0,0,1-.849-.544l-2.279-5.135H457.478l-2.279,5.135a.852.852,0,0,1-.849.544H453.4C453.012,146.215,452.9,146.034,453.058,145.671Zm10.779-19.382-5.509,12.343h11.017Z" fill="#1a1818"/>
      </g>
    </g>
    <circle id="Эллипс_8" data-name="Эллипс 8" cx="16.281" cy="16.281" r="16.281" transform="translate(312.651 103.232)" fill="#ffe019"/>
    <path id="Контур_22" data-name="Контур 22" d="M328.931,112.117l8.1,10.5H320.828Z" fill="#1a1818" stroke="#1a1818" stroke-miterlimit="10" stroke-width="3"/>
    <line id="Линия_14" data-name="Линия 14" y2="23.327" transform="translate(328.931 91.226)" fill="#1a1818" stroke="#1a1818" stroke-linecap="round" stroke-linejoin="round" stroke-width="2"/>
    <path id="Контур_23" data-name="Контур 23" d="M297,145.064l11.677-14.057v-39.1" fill="none" stroke="#1a1818" stroke-miterlimit="10" stroke-width="2"/>
    <line id="Линия_15" data-name="Линия 15" x2="42.009" transform="translate(308.677 131.007)" fill="none" stroke="#1a1818" stroke-miterlimit="10" stroke-width="2"/>
  </g>
</svg>
