<svg xmlns="http://www.w3.org/2000/svg" xmlns:xlink="http://www.w3.org/1999/xlink" width="34.888" height="35.785" viewBox="0 0 34.888 35.785">
  <defs>
    <linearGradient id="linear-gradient" x1="4.026" y1="5.192" x2="4.026" y2="4.267" gradientUnits="objectBoundingBox">
      <stop offset="0" stop-color="#fab516"/>
      <stop offset="0.12" stop-color="#fea617"/>
      <stop offset="1" stop-color="#fbce00"/>
    </linearGradient>
    <linearGradient id="linear-gradient-2" x1="4.034" y1="5.449" x2="4.034" y2="4.525" gradientUnits="objectBoundingBox">
      <stop offset="0" stop-color="#ffcc25"/>
      <stop offset="0.12" stop-color="#ffaf1e"/>
      <stop offset="1" stop-color="#ffe518"/>
    </linearGradient>
    <linearGradient id="linear-gradient-3" x1="4.886" y1="9.274" x2="4.886" y2="8.347" gradientUnits="objectBoundingBox">
      <stop offset="0" stop-color="#ffdc4c"/>
      <stop offset="1" stop-color="#ffe629"/>
    </linearGradient>
  </defs>
  <g id="Сгруппировать_58" data-name="Сгруппировать 58" transform="translate(-345.378 41.816)">
    <path id="Контур_77" data-name="Контур 77" d="M353.99-24.016a8.329,8.329,0,0,1-2.913-.076,7.78,7.78,0,0,1-2.511-1.05A6.758,6.758,0,0,1,346.7-27.01a6.033,6.033,0,0,1-.962-2.477,5.875,5.875,0,0,1,.177-2.624,6.922,6.922,0,0,1,1.217-2.316,7.71,7.71,0,0,1,2.077-1.757,8.416,8.416,0,0,1,2.755-.95,8.4,8.4,0,0,1,2.942.073,7.733,7.733,0,0,1,2.51,1.049,6.133,6.133,0,0,1,1.859,1.843,5.85,5.85,0,0,1,.956,2.449,5.984,5.984,0,0,1-.171,2.652,5.958,5.958,0,0,1-1.214,2.342,7.659,7.659,0,0,1-2.077,1.756,8.34,8.34,0,0,1-2.783.954Zm17.518-15.243,2.133-.328.29,1.889-9.512,15.2-8.984,16.47-3.447-2.288-.291-1.889,1.646-.253L361.828-23.9l8.639-16.029ZM353.479-27.337a2.239,2.239,0,0,0,1.662-1.222,3.781,3.781,0,0,0,.4-2.437,3.7,3.7,0,0,0-1.11-2.179,2.217,2.217,0,0,0-1.95-.637,2.228,2.228,0,0,0-1.636,1.219,3.59,3.59,0,0,0-.4,2.382,3.619,3.619,0,0,0,1.112,2.2,2.231,2.231,0,0,0,1.928.669Zm20.48,18.508a8.111,8.111,0,0,1-2.914-.076,7.386,7.386,0,0,1-2.511-1.05,6.9,6.9,0,0,1-1.857-1.843,5.52,5.52,0,0,1-.985-2.444,5.63,5.63,0,0,1,.2-2.656,6.659,6.659,0,0,1,1.212-2.341A7.34,7.34,0,0,1,369.183-21a8.119,8.119,0,0,1,2.755-.948,8.107,8.107,0,0,1,2.913.077,7.834,7.834,0,0,1,2.537,1.043,6.724,6.724,0,0,1,1.862,1.87,5.967,5.967,0,0,1,.935,2.481,5.868,5.868,0,0,1-.148,2.62,6.923,6.923,0,0,1-1.219,2.315,7.825,7.825,0,0,1-2.1,1.761,8.116,8.116,0,0,1-2.754.949Zm-.512-3.321a2.274,2.274,0,0,0,1.662-1.222,3.594,3.594,0,0,0,.434-2.388,3.639,3.639,0,0,0-1.142-2.2,2.278,2.278,0,0,0-1.952-.666,2.276,2.276,0,0,0-1.663,1.223,3.777,3.777,0,0,0-.372,2.433,3.7,3.7,0,0,0,1.082,2.182,2.246,2.246,0,0,0,1.951.638Z" fill-rule="evenodd" fill="url(#linear-gradient)"/>
    <path id="Контур_78" data-name="Контур 78" d="M353.7-25.906a8.3,8.3,0,0,1-2.913-.076,7.664,7.664,0,0,1-2.509-1.05,6.707,6.707,0,0,1-1.864-1.867,6.016,6.016,0,0,1-.962-2.478A5.905,5.905,0,0,1,345.626-34a6.944,6.944,0,0,1,1.22-2.317,7.752,7.752,0,0,1,2.078-1.756,8.351,8.351,0,0,1,2.755-.948,8.363,8.363,0,0,1,2.939.073,7.685,7.685,0,0,1,2.511,1.049,6.15,6.15,0,0,1,1.859,1.841,5.86,5.86,0,0,1,.956,2.45,5.98,5.98,0,0,1-.171,2.651,5.971,5.971,0,0,1-1.215,2.343,7.675,7.675,0,0,1-2.076,1.756,8.324,8.324,0,0,1-2.783.953Zm-.511-3.32a2.242,2.242,0,0,0,1.663-1.223,3.79,3.79,0,0,0,.4-2.437,3.7,3.7,0,0,0-1.109-2.177,2.217,2.217,0,0,0-1.95-.64,2.234,2.234,0,0,0-1.637,1.221,3.576,3.576,0,0,0-.4,2.382,3.619,3.619,0,0,0,1.112,2.2,2.23,2.23,0,0,0,1.928.671Zm20.479,18.509a8.115,8.115,0,0,1-2.911-.077,7.353,7.353,0,0,1-2.513-1.051,6.9,6.9,0,0,1-1.857-1.839,5.56,5.56,0,0,1-.987-2.447,5.656,5.656,0,0,1,.2-2.656,6.719,6.719,0,0,1,1.212-2.343,7.359,7.359,0,0,1,2.079-1.754,8.059,8.059,0,0,1,2.755-.951,8.084,8.084,0,0,1,2.913.078,7.752,7.752,0,0,1,2.537,1.044,6.707,6.707,0,0,1,1.863,1.868,5.99,5.99,0,0,1,.934,2.481,5.838,5.838,0,0,1-.15,2.62,6.889,6.889,0,0,1-1.217,2.315,7.823,7.823,0,0,1-2.105,1.762,8.158,8.158,0,0,1-2.755.95Zm-.511-3.322a2.274,2.274,0,0,0,1.662-1.222,3.594,3.594,0,0,0,.433-2.388,3.64,3.64,0,0,0-1.14-2.2,2.283,2.283,0,0,0-1.952-.666,2.279,2.279,0,0,0-1.664,1.225,3.751,3.751,0,0,0-.371,2.432,3.692,3.692,0,0,0,1.081,2.183,2.247,2.247,0,0,0,1.951.637ZM351.7-10.208l9.84-15.579,8.639-16.029,3.465,2.229-9.514,15.2L355.144-7.919Z" fill-rule="evenodd" fill="url(#linear-gradient-2)"/>
    <path id="Контур_79" data-name="Контур 79" d="M353.7-25.906a8.3,8.3,0,0,1-2.913-.076,7.664,7.664,0,0,1-2.509-1.05,6.707,6.707,0,0,1-1.864-1.867,6.016,6.016,0,0,1-.962-2.478A5.905,5.905,0,0,1,345.626-34a6.944,6.944,0,0,1,1.22-2.317,7.752,7.752,0,0,1,2.078-1.756,8.351,8.351,0,0,1,2.755-.948,8.363,8.363,0,0,1,2.939.073,7.685,7.685,0,0,1,2.511,1.049,6.15,6.15,0,0,1,1.859,1.841,5.86,5.86,0,0,1,.956,2.45,5.98,5.98,0,0,1-.171,2.651,5.971,5.971,0,0,1-1.215,2.343,7.675,7.675,0,0,1-2.076,1.756,8.324,8.324,0,0,1-2.783.953Zm6.282,2.57c1.208-.048,2.416-.1,3.669-.206l.477-.848,9.514-15.2-3.465-2.229-8.639,16.029Zm-6.793-5.89a2.242,2.242,0,0,0,1.663-1.223,3.79,3.79,0,0,0,.4-2.437,3.7,3.7,0,0,0-1.109-2.177,2.217,2.217,0,0,0-1.95-.64,2.234,2.234,0,0,0-1.637,1.221,3.576,3.576,0,0,0-.4,2.382,3.619,3.619,0,0,0,1.112,2.2,2.23,2.23,0,0,0,1.928.671Z" fill-rule="evenodd" fill="url(#linear-gradient-3)"/>
  </g>
</svg>
