<svg xmlns="http://www.w3.org/2000/svg" xmlns:xlink="http://www.w3.org/1999/xlink" width="22.401" height="23.157" viewBox="0 0 22.401 23.157">
  <defs>
    <linearGradient id="linear-gradient" x1="-34.911" y1="19.452" x2="-34.911" y2="18.442" gradientUnits="objectBoundingBox">
      <stop offset="0" stop-color="#fab516"/>
      <stop offset="0.12" stop-color="#fea617"/>
      <stop offset="1" stop-color="#fbce00"/>
    </linearGradient>
    <linearGradient id="linear-gradient-2" x1="-34.937" y1="19.445" x2="-34.937" y2="18.436" gradientUnits="objectBoundingBox">
      <stop offset="0" stop-color="#ffcc25"/>
      <stop offset="0.12" stop-color="#ffaf1e"/>
      <stop offset="1" stop-color="#ffe518"/>
    </linearGradient>
    <linearGradient id="linear-gradient-3" x1="-35.884" y1="28.188" x2="-35.884" y2="26.959" gradientUnits="objectBoundingBox">
      <stop offset="0" stop-color="#ffdc4c"/>
      <stop offset="1" stop-color="#ffe629"/>
    </linearGradient>
  </defs>
  <g id="Сгруппировать_52" data-name="Сгруппировать 52" transform="translate(-15.16 37.766)">
    <g id="Сгруппировать_51" data-name="Сгруппировать 51">
      <path id="Контур_67" data-name="Контур 67" d="M30.469-35.478a10.859,10.859,0,0,1,5.756,6.037,10.859,10.859,0,0,1-.2,8.338,10.859,10.859,0,0,1-6.033,5.756,10.859,10.859,0,0,1-8.34-.2A10.856,10.856,0,0,1,15.9-21.58a10.856,10.856,0,0,1,.2-8.337,10.875,10.875,0,0,1,6.037-5.759,10.87,10.87,0,0,1,8.339.2Zm.229,8.172a4.96,4.96,0,0,0-2.625-2.755,4.973,4.973,0,0,0-3.807-.089,4.951,4.951,0,0,0-2.753,2.629,4.948,4.948,0,0,0-.091,3.806,4.945,4.945,0,0,0,2.628,2.753,4.952,4.952,0,0,0,3.8.091A4.952,4.952,0,0,0,30.608-23.5,4.967,4.967,0,0,0,30.7-27.306Z" fill-rule="evenodd" fill="url(#linear-gradient)"/>
      <path id="Контур_68" data-name="Контур 68" d="M31.067-36.832A10.859,10.859,0,0,1,36.823-30.8a10.864,10.864,0,0,1-.2,8.337A10.884,10.884,0,0,1,30.591-16.7a10.861,10.861,0,0,1-8.339-.2A10.865,10.865,0,0,1,16.5-22.934a10.863,10.863,0,0,1,.2-8.338,10.872,10.872,0,0,1,6.036-5.757,10.863,10.863,0,0,1,8.34.2Zm.232,8.174a4.968,4.968,0,0,0-2.628-2.755,4.957,4.957,0,0,0-3.806-.09,4.961,4.961,0,0,0-2.755,2.626,4.955,4.955,0,0,0-.09,3.807,4.949,4.949,0,0,0,2.627,2.754,4.95,4.95,0,0,0,3.805.089,4.952,4.952,0,0,0,2.756-2.627A4.962,4.962,0,0,0,31.3-28.658Z" fill-rule="evenodd" fill="url(#linear-gradient-2)"/>
      <path id="Контур_69" data-name="Контур 69" d="M31.067-36.832A10.859,10.859,0,0,1,36.823-30.8a10.868,10.868,0,0,1-.086,8.085,24.833,24.833,0,0,1-5.808-1.6,5.088,5.088,0,0,0,.279-.54,4.962,4.962,0,0,0,.091-3.8,4.968,4.968,0,0,0-2.628-2.755,4.957,4.957,0,0,0-3.806-.09,4.961,4.961,0,0,0-2.755,2.626c-.07.162-.135.33-.188.5a40.5,40.5,0,0,0-5.6-1.925c.108-.325.232-.646.373-.967a10.872,10.872,0,0,1,6.036-5.757A10.863,10.863,0,0,1,31.067-36.832Z" fill-rule="evenodd" fill="url(#linear-gradient-3)"/>
    </g>
  </g>
</svg>
