<svg xmlns="http://www.w3.org/2000/svg" width="33.901" height="33.716" viewBox="0 0 33.901 33.716">
  <g id="Сгруппировать_8" data-name="Сгруппировать 8" transform="translate(-1500.316 -194.193)">
    <path id="Контур_4" data-name="Контур 4" d="M1517.267,197.658l3.544-3.466,1.828,4.607,4.647-1.725-.2,4.953,4.947.314-2.2,4.441,4.391,2.3-3.817,3.162,3.076,3.887-4.773,1.336,1.23,4.8-4.9-.721-.83,4.887-4.187-2.653-2.746,4.127-2.746-4.127-4.187,2.653-.83-4.887-4.9.721,1.23-4.8-4.773-1.336,3.076-3.887-3.817-3.162,4.391-2.3-2.2-4.441,4.947-.314-.2-4.953,4.647,1.725,1.828-4.607Z" fill="#e50019"/>
    <text id="_" data-name="%" transform="translate(1509.891 217.239)" fill="#fff" font-size="18" font-family="Lato-Bold, Lato" font-weight="700"><tspan x="0" y="0">%</tspan></text>
  </g>
</svg>
