<svg id="Layer_1" data-name="Layer 1" xmlns="http://www.w3.org/2000/svg" viewBox="0 0 28.4 28.4"><defs><style>.cls-1{fill:#5582c2;fill-rule:evenodd;}.cls-2{fill:#fdffff;}</style></defs><title>tf_footer_icon</title><path class="cls-1" d="M90,35.34c0-6.43,0-9.64,2-11.64s5.21-2,11.64-2h1.13c6.43,0,9.64,0,11.64,2s2,5.21,2,11.64v1.13c0,6.43,0,9.64-2,11.64s-5.21,2-11.64,2h-1.13c-6.43,0-9.64,0-11.64-2s-2-5.21-2-11.64V35.34Z" transform="translate(-89.98 -21.71)"/><path class="cls-2" d="M101.48,41.08c.08-1.11.17-2.18.23-3.25a.54.54,0,0,1,.22-.35l4.74-4.28,1.94-1.75c.08-.07.19-.14.14-.25s-.2-.09-.3-.06a1.69,1.69,0,0,0-.38.19L100,36.42a.81.81,0,0,1-.77.1c-1.07-.35-2.16-.68-3.25-1-.26-.09-.57-.17-.6-.49s.26-.5.53-.61l3.43-1.34,11.06-4.25.17-.07a.74.74,0,0,1,1.06.78,7.93,7.93,0,0,1-.25,1.36q-1.12,5.29-2.26,10.6a1.33,1.33,0,0,1-.12.37.69.69,0,0,1-.93.4,1.89,1.89,0,0,1-.55-.32c-1.07-.79-2.14-1.56-3.19-2.36-.25-.19-.38-.15-.58,0-.51.51-1,1-1.56,1.51a1.54,1.54,0,0,1-.19.17c-.13.09-.29.21-.45.14S101.53,41.18,101.48,41.08Z" transform="translate(-89.98 -21.71)"/></svg>