<svg xmlns="http://www.w3.org/2000/svg" width="28.397" height="28.396" viewBox="0 0 28.397 28.396">
  <g id="Сгруппировать_117" data-name="Сгруппировать 117" transform="translate(-1114.441 -3236.598)">
    <path id="Контур_130" data-name="Контур 130" d="M1114.441,3250.228c0-6.425,0-9.638,2-11.634s5.209-2,11.635-2h1.135c6.426,0,9.638,0,11.635,2s2,5.209,2,11.634v1.136c0,6.425,0,9.638-2,11.634s-5.209,2-11.635,2h-1.135c-6.426,0-9.638,0-11.635-2s-2-5.209-2-11.634v-1.136Z" fill="#115aa6" fill-rule="evenodd"/>
    <path id="Контур_131" data-name="Контур 131" d="M1129.551,3257.055c-6.472,0-10.164-4.437-10.318-11.82h3.242c.107,5.419,2.5,7.714,4.39,8.188v-8.188h3.053v4.674c1.869-.2,3.833-2.331,4.495-4.674h3.053a9.017,9.017,0,0,1-4.153,5.892,9.344,9.344,0,0,1,4.863,5.928h-3.36a5.842,5.842,0,0,0-4.9-4.224v4.224Z" fill="#fff" fill-rule="evenodd"/>
  </g>
</svg>
