<svg id="Layer_1" data-name="Layer 1" xmlns="http://www.w3.org/2000/svg" viewBox="0 0 28.4 28.4"><defs><style>.cls-1{fill:#366cb2;}.cls-1,.cls-2{fill-rule:evenodd;}.cls-2{fill:#fff;}</style></defs><title>vk_footer_icon</title><path class="cls-1" d="M51.53,35.36c0-6.42,0-9.63,2-11.63s5.21-2,11.64-2h1.13c6.43,0,9.64,0,11.64,2s2,5.21,2,11.63V36.5c0,6.43,0,9.64-2,11.63s-5.21,2-11.64,2H65.16c-6.43,0-9.64,0-11.64-2s-2-5.2-2-11.63V35.36Z" transform="translate(-51.53 -21.73)"/><path class="cls-2" d="M66.63,42.19c-6.47,0-10.16-4.44-10.31-11.82h3.24c.11,5.42,2.5,7.72,4.39,8.19V30.37h3V35c1.87-.2,3.83-2.33,4.5-4.67h3a9,9,0,0,1-4.15,5.89,9.35,9.35,0,0,1,4.86,5.93H71.9A5.82,5.82,0,0,0,67,38v4.22Z" transform="translate(-51.53 -21.73)"/></svg>