<svg xmlns="http://www.w3.org/2000/svg" width="17.235" height="15.822" viewBox="0 0 17.235 15.822">
  <g id="Сгруппировать_452" data-name="Сгруппировать 452" transform="translate(-3869.881 -472.217)">
    <path id="Контур_518" data-name="Контур 518" d="M3886.633,475.307a5.063,5.063,0,0,0-4.256-3.014,5.035,5.035,0,0,0-2.233.324,4.764,4.764,0,0,0-1.51.911c-.076.07-.142.1-.242.009a5.093,5.093,0,0,0-6.441-.225,5.087,5.087,0,0,0-1.992,3.625,4.712,4.712,0,0,0,.165,1.745,5.045,5.045,0,0,0,1.314,2.281q1.891,1.9,3.787,3.79,1.564,1.566,3.124,3.137c.114.115.186.135.3.006.221-.242.459-.47.691-.7,2.046-2.045,4.086-4.1,6.141-6.134a5.03,5.03,0,0,0,1.577-3.423A5.46,5.46,0,0,0,3886.633,475.307Z" fill="#fff" stroke="#ffb400" stroke-linecap="round" stroke-linejoin="round" stroke-width="0.108"/>
    <g id="Сгруппировать_451" data-name="Сгруппировать 451">
      <path id="Контур_519" data-name="Контур 519" d="M3885.217,478.679a.3.3,0,0,0-.379.049.22.22,0,0,0-.027.318C3884.825,478.817,3885.012,478.768,3885.217,478.679Z" fill="none"/>
      <path id="Контур_520" data-name="Контур 520" d="M3885.058,479.37a.43.43,0,0,0-.1.044.311.311,0,0,0,.465-.221.348.348,0,0,0-.035-.112c-.032.027-.086.05-.093.082A.225.225,0,0,1,3885.058,479.37Z" fill="none"/>
      <path id="Контур_521" data-name="Контур 521" d="M3872.807,478.779a.1.1,0,0,0,.059-.075c0-.024-.047-.071-.063-.067a.66.66,0,0,0-.277.1.239.239,0,0,0-.013.332C3872.592,478.865,3872.592,478.866,3872.807,478.779Z" fill="none"/>
      <path id="Контур_522" data-name="Контур 522" d="M3886.632,475.307a5.06,5.06,0,0,0-4.255-3.014,5.033,5.033,0,0,0-2.233.324,4.753,4.753,0,0,0-1.51.911c-.076.07-.142.1-.242.009a5.093,5.093,0,0,0-6.441-.225,5.087,5.087,0,0,0-1.992,3.625,4.712,4.712,0,0,0,.165,1.745,5.034,5.034,0,0,0,1.314,2.281q1.891,1.9,3.787,3.79,1.564,1.566,3.124,3.137c.114.115.186.135.3.006.222-.242.46-.47.692-.7,2.046-2.045,4.086-4.1,6.141-6.134a5.03,5.03,0,0,0,1.577-3.423A5.445,5.445,0,0,0,3886.632,475.307Zm-1.248-1.226a.348.348,0,0,1,.035.112.311.311,0,0,1-.465.221.43.43,0,0,1,.1-.044.225.225,0,0,0,.233-.207C3885.3,474.131,3885.352,474.108,3885.384,474.081Zm-.546-.353a.3.3,0,0,1,.379-.049c-.205.089-.392.138-.406.367A.22.22,0,0,1,3884.838,473.728Zm-12.312.013a.66.66,0,0,1,.277-.1c.016,0,.063.043.063.067a.1.1,0,0,1-.059.075c-.215.087-.215.086-.294.294A.239.239,0,0,1,3872.526,473.741Zm12.27,6.471q-3.073,3.084-6.155,6.159c-.114.114-.173.1-.276-.007-2.068-2.074-4.147-4.137-6.206-6.22a3.781,3.781,0,0,1-1.121-2.865,3.911,3.911,0,0,1,1.942-3.356,3.742,3.742,0,0,1,1.416-.512,4.013,4.013,0,0,1,1.564.052,3.907,3.907,0,0,1,1.881,1.032c.183.179.372.353.541.545.106.121.167.083.261-.005.346-.325.678-.669,1.052-.957a3.5,3.5,0,0,1,1.641-.663,3.9,3.9,0,0,1,3.556,1.2,3.785,3.785,0,0,1,1.08,2.7A3.863,3.863,0,0,1,3884.8,480.212Z" fill="#ffb400" stroke="#ffb400" stroke-linecap="round" stroke-linejoin="round" stroke-width="0.108"/>
    </g>
  </g>
</svg>
